<svg xmlns="http://www.w3.org/2000/svg" viewBox="0 0 512 512" role="img" aria-label="Desert sand icon">
  <defs>
    <linearGradient id="sky" x1="0" y1="0" x2="0" y2="1">
      <stop offset="0%" stop-color="#f8d8a3"/>
      <stop offset="100%" stop-color="#e8b66d"/>
    </linearGradient>
    <linearGradient id="dune1" x1="0" y1="0" x2="1" y2="1">
      <stop offset="0%" stop-color="#dca45c"/>
      <stop offset="100%" stop-color="#c67f3c"/>
    </linearGradient>
    <linearGradient id="dune2" x1="0" y1="0" x2="1" y2="1">
      <stop offset="0%" stop-color="#e0b067"/>
      <stop offset="100%" stop-color="#b56f32"/>
    </linearGradient>
  </defs>

  <rect width="512" height="512" fill="url(#sky)" />
  <circle cx="390" cy="126" r="52" fill="#fff2c8" opacity="0.85" />

  <path d="M0 332c70-72 165-107 258-104 104 4 190 35 254 103v181H0z" fill="url(#dune1)" />
  <path d="M0 396c84-41 150-57 235-52 98 6 190 33 277 85v83H0z" fill="url(#dune2)" opacity="0.9" />
  <path d="M0 443c94-33 171-39 248-32 95 8 183 36 264 79v22H0z" fill="#a45f28" opacity="0.5" />
</svg>
